<svg width="48" height="48" viewBox="0 0 320 320" fill="none" xmlns="http://www.w3.org/2000/svg">
<path d="M254.538 78.3125L271.1 60.0875C273.719 57.1348 275.069 53.2687 274.857 49.3273C274.645 45.3859 272.888 41.6869 269.967 39.0323C267.046 36.3777 263.197 34.9814 259.253 35.1461C255.309 35.3109 251.589 37.0235 248.9 39.9125L232.35 58.1125C207.438 40.5415 176.964 32.6798 146.662 36.0064C116.359 39.333 88.3163 53.6187 67.8099 76.1755C47.3035 98.7324 35.747 128.006 35.3147 158.487C34.8824 188.969 45.6041 218.558 65.4625 241.687L48.9 259.912C47.5475 261.365 46.4968 263.072 45.8088 264.934C45.1208 266.796 44.8093 268.776 44.8921 270.759C44.975 272.742 45.4506 274.69 46.2915 276.488C47.1324 278.286 48.3218 279.899 49.7908 281.234C51.2598 282.569 52.9791 283.599 54.8492 284.265C56.7192 284.93 58.7027 285.218 60.6848 285.111C62.6669 285.005 64.6082 284.506 66.396 283.643C68.1838 282.781 69.7827 281.572 71.1 280.087L87.65 261.887C112.562 279.458 143.036 287.32 173.338 283.994C203.641 280.667 231.684 266.381 252.19 243.824C272.696 221.268 284.253 191.994 284.685 161.513C285.118 131.031 274.396 101.442 254.538 78.3125ZM65 160C64.9855 142.873 69.6049 126.062 78.3685 111.347C87.1321 96.6325 99.7135 84.5629 114.779 76.4176C129.845 68.2722 146.834 64.3546 163.945 65.0799C181.056 65.8052 197.653 71.1465 211.975 80.5375L85.8375 219.287C72.3316 202.481 64.979 181.561 65 160ZM160 255C141.528 255.018 123.457 249.615 108.025 239.462L234.163 100.712C245.353 114.677 252.369 131.52 254.401 149.299C256.432 167.079 253.396 185.07 245.644 201.199C237.891 217.328 225.737 230.936 210.584 240.456C195.431 249.975 177.895 255.017 160 255Z" fill="#F162F8"/>
</svg>
